<?xml version="1.0" encoding="UTF-8"?>
<!DOCTYPE svg PUBLIC "-//W3C//DTD SVG 1.1//EN" "http://www.w3.org/Graphics/SVG/1.1/DTD/svg11.dtd">
<svg xmlns="http://www.w3.org/2000/svg" version="1.1" width="500px" height="500px" style="shape-rendering:geometricPrecision; text-rendering:geometricPrecision; image-rendering:optimizeQuality; fill-rule:evenodd; clip-rule:evenodd" xmlns:xlink="http://www.w3.org/1999/xlink">
<g><path style="opacity:1" fill="#003060" d="M -0.5,-0.5 C 166.167,-0.5 332.833,-0.5 499.5,-0.5C 499.5,166.167 499.5,332.833 499.5,499.5C 332.833,499.5 166.167,499.5 -0.5,499.5C -0.5,332.833 -0.5,166.167 -0.5,-0.5 Z"/></g>
<g><path style="opacity:1" fill="#13151a" d="M 306.5,222.5 C 298.476,233.094 287.976,239.76 275,242.5C 270.22,242.345 265.72,241.178 261.5,239C 256.852,232.191 251.852,225.691 246.5,219.5C 242.476,227.714 237.809,235.547 232.5,243C 219.436,242.983 206.769,240.649 194.5,236C 188.408,227.819 183.074,219.152 178.5,210C 182.945,200.942 187.778,192.109 193,183.5C 194.832,180.639 196.999,178.139 199.5,176C 203.5,175.333 207.5,175.333 211.5,176C 219.454,177.873 227.454,179.54 235.5,181C 238.39,185.293 241.39,189.459 244.5,193.5C 252.5,187.167 260.5,180.833 268.5,174.5C 273.717,172.055 279.051,171.889 284.5,174C 288.004,175.918 291.337,178.084 294.5,180.5C 299.901,187.624 305.068,194.957 310,202.5C 312.556,205.712 314.056,209.378 314.5,213.5C 312.846,217.483 310.179,220.483 306.5,222.5 Z"/></g>
<g><path style="opacity:1" fill="#7445a0" d="M 233.5,184.5 C 236.887,186.512 239.387,189.512 241,193.5C 240.617,196.811 239.783,200.145 238.5,203.5C 240.392,208.062 242.726,212.395 245.5,216.5C 241.806,222.554 238.639,228.888 236,235.5C 234.395,238.274 232.228,238.94 229.5,237.5C 226.252,231.336 222.752,225.336 219,219.5C 217.543,216.634 217.21,213.634 218,210.5C 223.933,202.302 229.1,193.635 233.5,184.5 Z"/></g>
<g><path style="opacity:1" fill="#45748b" d="M 287.5,190.5 C 289.935,191.27 291.269,192.937 291.5,195.5C 289.003,194.871 287.67,193.204 287.5,190.5 Z"/></g>
<g><path style="opacity:1" fill="#110d13" d="M 233.5,188.5 C 234.5,188.5 235.5,188.5 236.5,188.5C 236.662,190.527 236.495,192.527 236,194.5C 234.989,195.337 233.822,195.67 232.5,195.5C 232.298,193.05 232.631,190.717 233.5,188.5 Z"/></g>
<g><path style="opacity:1" fill="#1ca9dc" d="M 291.5,195.5 C 291.269,192.937 289.935,191.27 287.5,190.5C 284.738,188.404 282.738,185.738 281.5,182.5C 280.828,179.658 279.494,177.158 277.5,175C 283.437,176.213 288.937,178.713 294,182.5C 298.613,189.392 302.447,196.725 305.5,204.5C 312.488,210.341 311.821,211.508 303.5,208C 299.156,204.131 295.156,199.964 291.5,195.5 Z"/></g>
<g><path style="opacity:1" fill="#0e1316" d="M 290.5,182.5 C 293.691,183.548 294.691,185.548 293.5,188.5C 291.447,187.061 290.447,185.061 290.5,182.5 Z"/></g>
<g><path style="opacity:1" fill="#121d23" d="M 283.5,179.5 C 285.024,180.174 286.358,181.174 287.5,182.5C 288.484,187.473 287.317,187.806 284,183.5C 283.51,182.207 283.343,180.873 283.5,179.5 Z"/></g>
<g><path style="opacity:1" fill="#ededed" d="M 185.5,201.5 C 189.175,193.319 193.508,185.485 198.5,178C 202.5,177.333 206.5,177.333 210.5,178C 218.039,179.353 225.372,181.186 232.5,183.5C 226.311,193.196 220.311,203.029 214.5,213C 203.92,211.22 193.253,209.554 182.5,208C 182.167,207.667 181.833,207.333 181.5,207C 182.488,204.833 183.821,203 185.5,201.5 Z"/></g>
<g><path style="opacity:1" fill="#151515" d="M 216.5,192.5 C 218.167,192.5 219.833,192.5 221.5,192.5C 222.517,196.789 220.85,199.122 216.5,199.5C 214.734,199.566 213.734,198.732 213.5,197C 214.315,195.357 215.315,193.857 216.5,192.5 Z"/></g>
<g><path style="opacity:1" fill="#161717" d="M 193.5,189.5 C 195.199,189.34 196.866,189.506 198.5,190C 200.169,193.698 199.003,196.198 195,197.5C 190.88,195.595 190.38,192.929 193.5,189.5 Z"/></g>
<g><path style="opacity:1" fill="#0e0f10" d="M 222.5,182.5 C 226.071,182.408 227.238,184.074 226,187.5C 223.161,190.409 220.994,190.075 219.5,186.5C 219.787,184.557 220.787,183.223 222.5,182.5 Z"/></g>
<g><path style="opacity:1" fill="#171717" d="M 199.5,179.5 C 201.5,179.5 203.5,179.5 205.5,179.5C 205.503,184.815 202.836,186.815 197.5,185.5C 197.253,183.142 197.919,181.142 199.5,179.5 Z"/></g>
<g><path style="opacity:1" fill="#f4f4f4" d="M 281.5,182.5 C 282.738,185.738 284.738,188.404 287.5,190.5C 287.67,193.204 289.003,194.871 291.5,195.5C 294.431,199.623 296.765,204.123 298.5,209C 296.023,212.975 293.023,216.475 289.5,219.5C 285.518,222.152 281.851,225.152 278.5,228.5C 275.337,230.811 272.003,232.978 268.5,235C 266.471,235.681 264.471,236.014 262.5,236C 256.083,226.575 249.25,217.408 242,208.5C 240.578,205.97 240.245,203.303 241,200.5C 250.589,191.574 260.755,183.407 271.5,176C 273.259,175.202 274.926,175.369 276.5,176.5C 277.467,179.129 279.133,181.129 281.5,182.5 Z"/></g>
<g><path style="opacity:1" fill="#181818" d="M 268.5,184.5 C 275.602,184.073 277.602,186.907 274.5,193C 268.76,193.058 266.76,190.224 268.5,184.5 Z"/></g>
<g><path style="opacity:1" fill="#101f25" d="M 297.5,197.5 C 299.619,198.791 301.285,200.625 302.5,203C 299.365,202.692 297.698,200.859 297.5,197.5 Z"/></g>
<g><path style="opacity:1" fill="#151515" d="M 185.5,201.5 C 187.496,199.667 189.829,199.167 192.5,200C 193.921,205.004 191.921,207.004 186.5,206C 185.62,204.644 185.286,203.144 185.5,201.5 Z"/></g>
<g><path style="opacity:1" fill="#121212" d="M 249.5,201.5 C 254.351,200.868 256.851,202.868 257,207.5C 249.642,211.527 247.142,209.527 249.5,201.5 Z"/></g>
<g><path style="opacity:1" fill="#151515" d="M 267.5,202.5 C 273.293,203.421 274.626,206.255 271.5,211C 266.141,212.143 263.974,209.976 265,204.5C 265.995,203.934 266.828,203.267 267.5,202.5 Z"/></g>
<g><path style="opacity:1" fill="#1c1c1c" d="M 212.5,203.5 C 216.274,203.484 217.274,205.15 215.5,208.5C 213.513,210.501 211.18,211.335 208.5,211C 207.446,209.612 207.28,208.112 208,206.5C 209.652,205.601 211.152,204.601 212.5,203.5 Z"/></g>
<g><path style="opacity:1" fill="#161718" d="M 282.5,203.5 C 290.486,202.998 292.486,206.165 288.5,213C 281.998,212.963 279.998,209.797 282.5,203.5 Z"/></g>
<g><path style="opacity:1" fill="#0e0b10" d="M 233.5,207.5 C 235.722,207.559 236.722,208.725 236.5,211C 236.576,213.756 235.243,214.923 232.5,214.5C 232.298,212.05 232.631,209.717 233.5,207.5 Z"/></g>
<g><path style="opacity:1" fill="#18121d" d="M 221.5,210.5 C 225.395,210.857 226.395,212.857 224.5,216.5C 223.264,217.246 221.93,217.579 220.5,217.5C 220.448,215.097 220.781,212.764 221.5,210.5 Z"/></g>
<g><path style="opacity:1" fill="#1ab5ec" d="M 182.5,210.5 C 193.801,211.311 204.801,213.645 215.5,217.5C 220.739,225.056 225.073,233.056 228.5,241.5C 217.506,240.918 206.839,238.751 196.5,235C 190.813,228.475 185.98,221.308 182,213.5C 181.53,212.423 181.697,211.423 182.5,210.5 Z"/></g>
<g><path style="opacity:1" fill="#0f1518" d="M 185.5,212.5 C 189.167,212.833 191.167,214.833 191.5,218.5C 187.167,218.833 185.167,216.833 185.5,212.5 Z"/></g>
<g><path style="opacity:1" fill="#141414" d="M 264.5,219.5 C 270.842,219.139 272.842,221.972 270.5,228C 264.148,230.399 261.648,228.232 263,221.5C 263.717,220.956 264.217,220.289 264.5,219.5 Z"/></g>
<g><path style="opacity:1" fill="#453454" d="M 289.5,219.5 C 289.833,219.5 290.167,219.5 290.5,219.5C 288.098,222.215 285.432,224.715 282.5,227C 281.255,227.791 279.922,228.291 278.5,228.5C 281.851,225.152 285.518,222.152 289.5,219.5 Z"/></g>
<g><path style="opacity:1" fill="#72449e" d="M 307.5,219.5 C 306.89,220.391 306.557,221.391 306.5,222.5C 301.185,226.141 295.851,229.808 290.5,233.5C 287.903,232.6 285.569,233.267 283.5,235.5C 282.707,234.645 283.04,233.811 284.5,233C 283.552,232.517 282.552,232.351 281.5,232.5C 281.44,231.957 281.107,231.624 280.5,231.5C 278.07,233.485 275.404,234.651 272.5,235C 274.706,232.963 276.706,230.797 278.5,228.5C 279.922,228.291 281.255,227.791 282.5,227C 285.432,224.715 288.098,222.215 290.5,219.5C 294.527,216.464 298.527,213.464 302.5,210.5C 305.799,210.738 308.799,211.738 311.5,213.5C 311.068,216.181 309.734,218.181 307.5,219.5 Z"/></g>
<g><path style="opacity:1" fill="#281b34" d="M 307.5,219.5 C 305.456,220.031 303.789,221.198 302.5,223C 299.621,223.957 297.121,223.457 295,221.5C 293.401,223.036 291.567,223.536 289.5,223C 294.854,216.955 300.854,215.788 307.5,219.5 Z"/></g>
<g><path style="opacity:1" fill="#10181c" d="M 200.5,224.5 C 205.115,224.79 207.782,227.123 208.5,231.5C 204.266,230.932 201.6,228.598 200.5,224.5 Z"/></g>
<g><path style="opacity:1" fill="#0f0c11" d="M 232.5,226.5 C 233.693,226.97 234.36,227.97 234.5,229.5C 234.821,232.512 233.488,233.845 230.5,233.5C 230.185,230.789 230.852,228.456 232.5,226.5 Z"/></g>
<g><path style="opacity:1" fill="#281b35" d="M 281.5,232.5 C 282.552,232.351 283.552,232.517 284.5,233C 283.04,233.811 282.707,234.645 283.5,235.5C 285.569,233.267 287.903,232.6 290.5,233.5C 288.049,236.277 285.049,238.277 281.5,239.5C 279.721,237.656 277.388,236.99 274.5,237.5C 276.619,235.6 278.953,233.934 281.5,232.5 Z"/></g>
<g><path style="opacity:1" fill="#142b36" d="M 217.5,232.5 C 221.884,232.399 224.05,234.399 224,238.5C 219.593,239.27 217.427,237.27 217.5,232.5 Z"/></g>
<g><path style="opacity:1" fill="#683f8f" d="M 274.5,237.5 C 277.388,236.99 279.721,237.656 281.5,239.5C 277.888,240.511 274.221,240.678 270.5,240C 269.289,239.107 269.289,238.274 270.5,237.5C 271.865,238.807 273.198,238.807 274.5,237.5 Z"/></g>
<g><path style="opacity:1" fill="#eef1f4" d="M 267.5,252.5 C 270.187,252.336 272.854,252.503 275.5,253C 276.059,253.725 276.392,254.558 276.5,255.5C 275.333,259.5 274.167,263.5 273,267.5C 269.739,268.13 266.572,269.13 263.5,270.5C 262.914,270.291 262.414,269.957 262,269.5C 261.22,265.318 260.386,261.151 259.5,257C 259.645,256.228 259.978,255.561 260.5,255C 263.191,254.844 265.524,254.011 267.5,252.5 Z"/></g>
<g><path style="opacity:1" fill="#f0f3f6" d="M 243.5,255.5 C 249.304,256.677 250.971,260.01 248.5,265.5C 253.989,265.504 255.822,268.171 254,273.5C 253.468,276.264 252.634,278.93 251.5,281.5C 251.808,282.308 252.308,282.975 253,283.5C 256.637,281.799 260.47,280.799 264.5,280.5C 264.5,279.5 264.5,278.5 264.5,277.5C 262.213,277.724 260.047,278.391 258,279.5C 257.228,279.355 256.561,279.022 256,278.5C 256.077,274.195 256.244,269.862 256.5,265.5C 257.822,265.33 258.989,265.663 260,266.5C 260.157,268.995 260.324,271.328 260.5,273.5C 263.539,272.431 266.539,271.265 269.5,270C 272.562,269.259 275.562,269.425 278.5,270.5C 279.489,272.588 279.156,274.588 277.5,276.5C 282.181,277.178 284.181,279.845 283.5,284.5C 279.774,284.177 276.107,284.511 272.5,285.5C 275.405,289.29 279.072,292.123 283.5,294C 280.155,298.347 276.655,298.847 273,295.5C 271.587,292.339 269.92,289.339 268,286.5C 266.642,289.381 265.142,292.214 263.5,295C 260.97,296.422 258.303,296.755 255.5,296C 258.4,293.603 260.733,290.77 262.5,287.5C 260.013,287.218 257.347,287.218 254.5,287.5C 254.072,293.253 251.905,293.92 248,289.5C 245.367,294.732 241.201,296.565 235.5,295C 235.043,294.586 234.709,294.086 234.5,293.5C 237.207,291.157 239.874,288.823 242.5,286.5C 240.108,285.108 238.441,283.108 237.5,280.5C 238.467,278.238 239.134,275.905 239.5,273.5C 235.808,273.676 233.808,272.009 233.5,268.5C 236.321,268.461 238.988,267.795 241.5,266.5C 242.921,262.972 243.588,259.306 243.5,255.5 Z"/></g>
<g><path style="opacity:1" fill="#eef1f4" d="M 332.5,267.5 C 334.716,268.203 336.549,269.536 338,271.5C 338.711,273.367 338.211,274.867 336.5,276C 334.945,275.575 333.445,274.742 332,273.5C 329.845,274.244 327.845,275.244 326,276.5C 324.405,275.644 323.572,274.311 323.5,272.5C 323.167,271.833 322.833,271.167 322.5,270.5C 325.089,269.581 327.089,267.914 328.5,265.5C 326.429,265.924 324.429,265.258 322.5,263.5C 321.518,266.962 321.185,270.629 321.5,274.5C 321.5,275.167 321.5,275.833 321.5,276.5C 316.783,275.531 312.117,275.197 307.5,275.5C 305.902,277.973 304.402,277.973 303,275.5C 300.3,277.269 297.466,278.602 294.5,279.5C 294.123,277.742 293.456,276.075 292.5,274.5C 294.316,272.183 296.316,270.016 298.5,268C 296.026,267.887 294.026,266.887 292.5,265C 296.432,262.576 298.432,259.076 298.5,254.5C 304.987,254.965 305.987,257.465 301.5,262C 302.793,262.49 304.127,262.657 305.5,262.5C 305.747,264.858 305.081,266.858 303.5,268.5C 301.704,269.793 300.037,271.293 298.5,273C 299,273.167 299.5,273.333 300,273.5C 301.174,272.456 302.341,271.456 303.5,270.5C 304.794,271.29 305.961,272.29 307,273.5C 306.839,268.533 306.672,263.533 306.5,258.5C 308.199,258.66 309.866,258.494 311.5,258C 310.5,257.667 309.5,257.333 308.5,257C 309.982,254.52 311.815,252.353 314,250.5C 316.59,251.687 317.09,253.52 315.5,256C 319.448,256.041 321.948,257.874 323,261.5C 325.571,259.024 327.071,256.024 327.5,252.5C 333.04,252.138 334.374,254.138 331.5,258.5C 332.991,259.244 334.491,259.91 336,260.5C 336.667,261.5 336.667,262.5 336,263.5C 334.624,264.705 333.458,266.038 332.5,267.5 Z"/></g>
<g><path style="opacity:1" fill="#163b69" d="M 268.5,257.5 C 269.649,257.791 270.316,258.624 270.5,260C 270.333,260.833 270.167,261.667 270,262.5C 265.882,265.79 264.549,264.79 266,259.5C 266.995,258.934 267.828,258.267 268.5,257.5 Z"/></g>
<g><path style="opacity:1" fill="#f8f9fa" d="M 157.5,260.5 C 164.175,260.334 170.842,260.5 177.5,261C 182.711,263.594 184.544,267.761 183,273.5C 182.31,276.196 180.81,278.363 178.5,280C 174.3,281.367 169.967,281.867 165.5,281.5C 165.867,285.967 165.367,290.3 164,294.5C 162.062,295.86 160.396,295.527 159,293.5C 158.766,282.467 158.266,271.467 157.5,260.5 Z"/></g>
<g><path style="opacity:1" fill="#f3f5f8" d="M 197.5,274.5 C 197.44,273.957 197.107,273.624 196.5,273.5C 195.526,275.743 195.192,278.076 195.5,280.5C 195.852,285.006 195.185,289.339 193.5,293.5C 191.051,294.91 188.884,294.576 187,292.5C 188.063,281.571 188.563,270.571 188.5,259.5C 191.518,259.335 194.518,259.502 197.5,260C 198,260.5 198.5,261 199,261.5C 201.744,267.91 204.578,274.243 207.5,280.5C 210.271,274.623 212.771,268.623 215,262.5C 217.823,259.429 221.156,258.762 225,260.5C 225.734,269.676 226.568,278.842 227.5,288C 228.739,293.428 226.739,295.428 221.5,294C 220.874,293.25 220.374,292.416 220,291.5C 219.573,285.473 218.907,279.473 218,273.5C 214.814,280.048 211.814,286.715 209,293.5C 208.439,294.022 207.772,294.355 207,294.5C 203.05,288.264 199.883,281.598 197.5,274.5 Z"/></g>
<g><path style="opacity:1" fill="#153c69" d="M 311.5,261.5 C 313.5,261.5 315.5,261.5 317.5,261.5C 317.5,262.5 317.5,263.5 317.5,264.5C 315.533,264.261 313.699,264.594 312,265.5C 311.51,264.207 311.343,262.873 311.5,261.5 Z"/></g>
<g><path style="opacity:1" fill="#294873" d="M 322.5,263.5 C 324.429,265.258 326.429,265.924 328.5,265.5C 327.089,267.914 325.089,269.581 322.5,270.5C 322.5,268.167 322.5,265.833 322.5,263.5 Z"/></g>
<g><path style="opacity:1" fill="#899fb5" d="M 322.5,263.5 C 322.5,265.833 322.5,268.167 322.5,270.5C 322.833,271.167 323.167,271.833 323.5,272.5C 322.833,273.167 322.167,273.833 321.5,274.5C 321.185,270.629 321.518,266.962 322.5,263.5 Z"/></g>
<g><path style="opacity:1" fill="#133a68" d="M 165.5,266.5 C 168.187,266.336 170.854,266.503 173.5,267C 176.07,269.615 176.07,272.282 173.5,275C 170.854,275.497 168.187,275.664 165.5,275.5C 165.5,272.5 165.5,269.5 165.5,266.5 Z"/></g>
<g><path style="opacity:1" fill="#1c3e6b" d="M 311.5,268.5 C 313.5,268.5 315.5,268.5 317.5,268.5C 317.5,269.5 317.5,270.5 317.5,271.5C 315.738,271.357 314.071,271.691 312.5,272.5C 311.571,271.311 311.238,269.978 311.5,268.5 Z"/></g>
<g><path style="opacity:1" fill="#49688c" d="M 332.5,267.5 C 331.685,269.908 330.019,270.741 327.5,270C 329.078,268.906 330.745,268.072 332.5,267.5 Z"/></g>
<g><path style="opacity:1" fill="#254571" d="M 245.5,272.5 C 246.586,272.62 247.253,273.287 247.5,274.5C 246.844,276.453 246.511,278.453 246.5,280.5C 245.5,280.5 244.5,280.5 243.5,280.5C 243.963,277.779 244.629,275.112 245.5,272.5 Z"/></g>
<g><path style="opacity:1" fill="#577394" d="M 303.5,268.5 C 303.5,269.167 303.5,269.833 303.5,270.5C 302.341,271.456 301.174,272.456 300,273.5C 299.5,273.333 299,273.167 298.5,273C 300.037,271.293 301.704,269.793 303.5,268.5 Z"/></g>
<g><path style="opacity:1" fill="#0e3766" d="M 269.5,275.5 C 270.833,275.5 272.167,275.5 273.5,275.5C 273.5,276.5 273.5,277.5 273.5,278.5C 272.167,278.5 270.833,278.5 269.5,278.5C 269.5,277.5 269.5,276.5 269.5,275.5 Z"/></g>
<g><path style="opacity:1" fill="#254671" d="M 321.5,276.5 C 320.833,277.167 320.167,277.833 319.5,278.5C 316.078,276.792 313.078,277.292 310.5,280C 305.468,280.336 300.468,280.836 295.5,281.5C 295.167,280.833 294.833,280.167 294.5,279.5C 297.466,278.602 300.3,277.269 303,275.5C 304.402,277.973 305.902,277.973 307.5,275.5C 312.117,275.197 316.783,275.531 321.5,276.5 Z"/></g>
<g><path style="opacity:1" fill="#f1f3f6" d="M 319.5,278.5 C 324.844,278.334 330.177,278.501 335.5,279C 337.037,280.11 337.703,281.61 337.5,283.5C 331.167,283.5 324.833,283.5 318.5,283.5C 318.666,287.846 318.499,292.179 318,296.5C 315.768,300.325 313.768,300.325 312,296.5C 311.501,292.514 311.334,288.514 311.5,284.5C 310.448,284.351 309.448,284.517 308.5,285C 311.192,287.632 310.859,289.966 307.5,292C 303.567,294.756 299.234,296.09 294.5,296C 298.314,293.353 301.647,290.187 304.5,286.5C 301.553,285.679 298.553,285.179 295.5,285C 292.03,282.877 292.03,281.71 295.5,281.5C 300.468,280.836 305.468,280.336 310.5,280C 313.078,277.292 316.078,276.792 319.5,278.5 Z"/></g>
<g><path style="opacity:1" fill="#577394" d="M 197.5,274.5 C 196.833,276.5 196.167,278.5 195.5,280.5C 195.192,278.076 195.526,275.743 196.5,273.5C 197.107,273.624 197.44,273.957 197.5,274.5 Z"/></g>
<g><path style="opacity:1" fill="#eef1f4" d="M 320.5,285.5 C 325.75,286.396 330.75,288.063 335.5,290.5C 337.178,293.474 336.345,295.141 333,295.5C 328.753,294.544 325.087,292.544 322,289.5C 321.209,288.255 320.709,286.922 320.5,285.5 Z"/></g>
</svg>
