<svg width="349" height="89" xmlns="http://www.w3.org/2000/svg" xmlns:xlink="http://www.w3.org/1999/xlink" overflow="hidden"><defs><clipPath id="clip0"><rect x="511" y="306" width="349" height="89"/></clipPath></defs><g clip-path="url(#clip0)" transform="translate(-511 -306)"><path d="M-0.500225-0.500225C166.242-0.500225 332.983-0.500225 499.725-0.500225 499.725 166.242 499.725 332.983 499.725 499.725 332.983 499.725 166.242 499.725-0.500225 499.725-0.500225 332.983-0.500225 166.242-0.500225-0.500225Z" fill="#003060" fill-rule="evenodd" transform="matrix(1.00198 0 0 1 389.34 109.992)"/><path d="M384.673 219.599C387.293 219.331 389.794 219.664 392.176 220.599 392.304 225.731 391.471 230.734 389.675 235.606 385.758 235.353 382.091 236.019 378.67 237.607 377.682 232.315 377.014 226.98 376.669 221.6 379.724 221.989 382.392 221.322 384.673 219.599Z" fill="#F1F4F6" fill-rule="evenodd" transform="matrix(1.00198 0 0 1 389.34 109.992)"/><path d="M418.688 237.607C421.977 238.38 423.477 240.381 423.19 243.609 421.602 244.837 420.268 244.504 419.188 242.609 417.038 244.771 414.537 245.939 411.685 246.111 411.055 244.218 410.054 242.55 408.684 241.108 411.161 239.799 413.162 237.965 414.686 235.606 412.899 234.79 411.231 233.789 409.684 232.605 412.314 229.677 414.148 226.343 415.187 222.6 420.586 221.855 421.754 223.856 418.688 228.603 419.514 229.489 420.514 229.822 421.69 229.603 422.174 232.893 421.173 235.561 418.688 237.607Z" fill="#F0F2F5" fill-rule="evenodd" transform="matrix(1.00198 0 0 1 389.34 109.992)"/><path d="M359.662 222.6C365.366 223.642 367.033 226.81 364.664 232.104 366.598 232.355 368.432 232.856 370.166 233.605 371.018 238.598 370.518 243.433 368.666 248.112 368.999 248.945 369.333 249.779 369.666 250.613 373.237 249.145 376.905 247.977 380.671 247.111 381.128 246.697 381.462 246.197 381.672 245.61 378.464 245.482 375.297 245.482 372.167 245.61 372.762 241.306 373.596 236.971 374.668 232.605 375.647 233.082 376.48 233.748 377.17 234.605 376.951 236.693 377.118 238.694 377.67 240.608 382.958 237.453 388.627 236.285 394.677 237.107 395.628 239.54 395.628 242.041 394.677 244.61 398.982 244.845 400.65 247.18 399.68 251.613 395.996 251.448 392.328 251.614 388.675 252.113 391.762 255.872 395.43 258.873 399.68 261.117 397.075 265.217 393.907 266.051 390.175 263.618 388.596 260.123 386.761 256.788 384.673 253.614 383.3 257.195 381.299 260.363 378.67 263.118 376.336 263.786 374.001 263.786 371.667 263.118 374.706 260.414 377.375 257.413 379.671 254.114 377.802 254.11 375.967 254.61 374.168 255.615 373.396 255.47 372.729 255.137 372.167 254.614 371.279 259.557 368.945 260.557 365.164 257.616 363.007 259.101 360.839 260.602 358.661 262.118 355.857 262.873 353.189 262.54 350.658 261.117 353.956 258.821 356.957 256.153 359.662 253.114 354.104 250.545 353.104 246.543 356.66 241.108 353.411 241.026 351.077 239.526 349.657 236.606 352.596 235.617 355.598 234.95 358.661 234.605 359.182 230.623 359.516 226.621 359.662 222.6Z" fill="#F1F4F6" fill-rule="evenodd" transform="matrix(1.00198 0 0 1 389.34 109.992)"/><path d="M435.696 244.61C434.703 243.083 433.203 242.416 431.194 242.609 429.159 242.463 427.491 243.129 426.192 244.61 425.858 244.277 425.524 243.943 425.191 243.609 423.902 238.019 423.401 232.349 423.69 226.602 428.039 226.16 428.373 225.326 424.691 224.101 426.904 222.057 428.905 219.89 430.694 217.598 433.369 218.597 434.036 220.265 432.694 222.6 435.654 223.658 438.155 225.324 440.198 227.602 442.73 225.136 444.231 222.135 444.7 218.598 449.69 219.713 450.691 222.214 447.701 226.102 449.336 226.596 451.004 226.762 452.703 226.602 452.942 229.511 451.941 231.846 449.702 233.605 451.018 235.422 452.518 237.09 454.204 238.607 455.059 240.715 454.392 242.05 452.203 242.609 450.982 241.837 449.981 240.836 449.202 239.608 447.167 241.14 444.999 242.474 442.699 243.609 441.052 242.33 439.885 240.663 439.197 238.607 438.864 240.275 438.53 241.942 438.197 243.609 437.526 244.362 436.692 244.696 435.696 244.61Z" fill="#EEF1F4" fill-rule="evenodd" transform="matrix(1.00198 0 0 1 389.34 109.992)"/><path d="M382.672 225.601C384.006 225.601 385.34 225.601 386.674 225.601 387.287 229.615 385.619 231.616 381.672 231.604 381.496 229.482 381.831 227.481 382.672 225.601Z" fill="#133967" fill-rule="evenodd" transform="matrix(1.00198 0 0 1 389.34 109.992)"/><path d="M273.623 227.602C280.634 227.436 287.637 227.602 294.632 228.103 296.419 228.888 297.92 230.054 299.134 231.604 301.649 244.931 296.146 250.601 282.627 248.612 282.792 252.295 282.626 255.963 282.127 259.617 279.914 263.454 277.579 263.454 275.124 259.617 274.912 248.9 274.411 238.228 273.623 227.602Z" fill="#F2F4F7" fill-rule="evenodd" transform="matrix(1.00198 0 0 1 389.34 109.992)"/><path d="M304.637 226.602C308.245 226.313 311.746 226.646 315.142 227.602 318.533 234.441 321.535 241.445 324.146 248.612 326.872 241.493 329.873 234.489 333.15 227.602 335.946 226.319 338.78 226.319 341.654 227.602 343.625 238.517 344.46 249.522 344.155 260.617 341.561 262.1 339.227 261.766 337.152 259.617 336.368 253.563 335.368 247.56 334.15 241.609 331.482 247.611 328.815 253.614 326.147 259.617 325.457 260.474 324.624 261.14 323.645 261.618 320.144 254.614 316.642 247.611 313.141 240.608 312.539 246.951 311.873 253.288 311.14 259.617 305.525 262.708 303.024 260.874 303.636 254.114 305.592 244.967 305.926 235.797 304.637 226.602Z" fill="#F2F4F7" fill-rule="evenodd" transform="matrix(1.00198 0 0 1 389.34 109.992)"/><path d="M428.693 228.603C430.36 228.603 432.027 228.603 433.695 228.603 433.695 229.603 433.695 230.604 433.695 231.604 431.694 231.937 429.693 232.271 427.692 232.605 427.625 231.145 427.958 229.811 428.693 228.603Z" fill="#21426F" fill-rule="evenodd" transform="matrix(1.00198 0 0 1 389.34 109.992)"/><path d="M438.697 230.604C439.729 231.459 440.895 232.126 442.199 232.605 443.361 231.917 444.528 231.751 445.7 232.104 443.849 234.123 441.849 235.957 439.698 237.607 438.723 235.363 438.389 233.029 438.697 230.604Z" fill="#183D6B" fill-rule="evenodd" transform="matrix(1.00198 0 0 1 389.34 109.992)"/><path d="M282.627 233.605C285.315 233.441 287.983 233.608 290.631 234.105 293.202 236.721 293.202 239.39 290.631 242.109 287.983 242.606 285.315 242.773 282.627 242.609 282.627 239.608 282.627 236.606 282.627 233.605Z" fill="#123866" fill-rule="evenodd" transform="matrix(1.00198 0 0 1 389.34 109.992)"/><path d="M429.693 235.606C431.027 235.606 432.361 235.606 433.695 235.606 433.695 236.606 433.695 237.607 433.695 238.607 431.906 238.892 430.238 238.559 428.693 237.607 429.056 236.923 429.389 236.256 429.693 235.606Z" fill="#053262" fill-rule="evenodd" transform="matrix(1.00198 0 0 1 389.34 109.992)"/><path d="M447.701 234.605C448.976 235.295 448.976 236.129 447.701 237.107 446.701 237.774 445.7 237.774 444.7 237.107 446.143 236.729 447.143 235.896 447.701 234.605Z" fill="#385980" fill-rule="evenodd" transform="matrix(1.00198 0 0 1 389.34 109.992)"/><path d="M362.663 239.608C363.539 239.477 364.207 239.81 364.664 240.608 364.113 243.165 363.112 245.499 361.663 247.611 360.429 244.768 360.762 242.101 362.663 239.608Z" fill="#1E416D" fill-rule="evenodd" transform="matrix(1.00198 0 0 1 389.34 109.992)"/><path d="M418.688 237.607C418.466 240.184 417.132 241.018 414.686 240.108 415.88 239.012 417.215 238.179 418.688 237.607Z" fill="#557293" fill-rule="evenodd" transform="matrix(1.00198 0 0 1 389.34 109.992)"/><path d="M386.674 242.609C391.452 242.78 391.785 243.781 387.674 245.61 385.37 245.234 385.036 244.234 386.674 242.609Z" fill="#1B3F6C" fill-rule="evenodd" transform="matrix(1.00198 0 0 1 389.34 109.992)"/><path d="M435.696 244.61C440.849 245.437 446.185 245.938 451.703 246.111 452.891 247.13 453.891 248.298 454.704 249.612 448.404 250.609 442.067 250.943 435.696 250.613 435.862 254.961 435.695 259.296 435.196 263.618 433.471 266.85 431.47 267.184 429.193 264.619 428.694 260.296 428.527 255.961 428.693 251.613 427.319 251.456 425.984 251.623 424.691 252.113 425.707 252.633 426.374 253.467 426.692 254.614 423.495 260.55 418.493 263.384 411.685 263.118 415.687 260.45 419.021 257.116 421.69 253.114 418.688 252.781 415.687 252.446 412.685 252.113 411.275 251.745 410.274 250.912 409.684 249.612 418.438 248.184 427.109 246.516 435.696 244.61Z" fill="#EFF2F5" fill-rule="evenodd" transform="matrix(1.00198 0 0 1 389.34 109.992)"/><path d="M437.697 252.614C442.633 253.246 447.301 254.747 451.703 257.116 452.609 258.815 452.943 260.65 452.703 262.618 447.344 262.274 442.675 260.273 438.697 256.615 437.951 255.379 437.618 254.044 437.697 252.614Z" fill="#EDF0F4" fill-rule="evenodd" transform="matrix(1.00198 0 0 1 389.34 109.992)"/><path d="M262.618 257.616C254.216 268.65 243.211 275.32 229.603 277.625 225.184 277.918 221.182 276.75 217.598 274.123 212.463 267.672 207.461 261.169 202.591 254.614 198.197 262.647 193.528 270.485 188.585 278.125 175.353 278.846 162.68 276.512 150.568 271.122 144.473 262.937 139.137 254.266 134.56 245.11 140.467 233.294 147.136 221.956 154.569 211.095 167.849 210.835 180.688 213.003 193.087 217.598 195.183 221.465 197.517 225.133 200.09 228.603 208.666 222.226 217.17 215.723 225.601 209.094 230.577 207.154 235.579 207.154 240.608 209.094 244.114 211.013 247.448 213.18 250.613 215.597 256.04 222.796 261.209 230.132 266.12 237.607 272.79 245.749 271.622 252.419 262.618 257.616Z" fill="#131419" fill-rule="evenodd" transform="matrix(1.00198 0 0 1 389.34 109.992)"/><path d="M263.618 254.614C263.008 255.506 262.675 256.506 262.618 257.616 257.301 261.258 251.964 264.927 246.611 268.621 245.961 268.317 245.293 267.983 244.61 267.62 242.869 269.332 240.868 270.165 238.607 270.121 241.441 268.213 241.107 267.379 237.607 267.62 237.547 267.077 237.214 266.744 236.606 266.62 234.175 268.606 231.508 269.772 228.603 270.121 230.81 268.083 232.811 265.917 234.605 263.618 242.464 259.103 249.467 253.435 255.615 246.611 259.922 245.352 263.924 246.02 267.62 248.612 267.188 251.294 265.853 253.295 263.618 254.614Z" fill="#71449D" fill-rule="evenodd" transform="matrix(1.00198 0 0 1 389.34 109.992)"/><path d="M263.618 254.614C261.295 255.931 258.96 257.265 256.615 258.616 255.01 257.686 253.509 257.686 252.113 258.616 251.78 257.949 251.446 257.283 251.113 256.615 249.513 258.152 247.678 258.652 245.61 258.116 247.865 255.404 250.7 253.569 254.114 252.614 255.126 253.006 255.626 253.673 255.615 254.614 258.234 252.571 260.901 252.571 263.618 254.614Z" fill="#1F1626" fill-rule="evenodd" transform="matrix(1.00198 0 0 1 389.34 109.992)"/><path d="M183.583 273.623C183.583 274.623 183.583 275.624 183.583 276.624 182.249 276.624 180.914 276.624 179.581 276.624 169.085 275.336 159.081 272.501 149.567 268.121 145.691 261.202 141.69 254.365 137.562 247.611 137.771 247.025 138.105 246.525 138.562 246.111 149.495 246.507 160.167 248.508 170.577 252.113 175.552 258.895 179.887 266.066 183.583 273.623Z" fill="#1AB5ED" fill-rule="evenodd" transform="matrix(1.00198 0 0 1 389.34 109.992)"/><path d="M156.57 259.617C161.148 259.864 163.817 262.199 164.574 266.62 160.198 266.118 157.53 263.783 156.57 259.617Z" fill="#121D22" fill-rule="evenodd" transform="matrix(1.00198 0 0 1 389.34 109.992)"/><path d="M141.564 247.611C145.232 247.944 147.233 249.945 147.566 253.614 143.231 253.947 141.23 251.946 141.564 247.611Z" fill="#11191D" fill-rule="evenodd" transform="matrix(1.00198 0 0 1 389.34 109.992)"/><path d="M196.588 242.609C197.217 245.2 198.384 247.534 200.09 249.612 200.757 250.946 200.757 252.28 200.09 253.614 197.149 259.162 194.481 264.832 192.086 270.622 190.481 273.397 188.313 274.063 185.583 272.623 181.948 265.823 178.113 259.154 174.078 252.614 173.411 250.279 173.411 247.944 174.078 245.61 179.836 237.771 184.838 229.434 189.085 220.599 189.646 220.077 190.314 219.744 191.086 219.599 193.761 222.946 195.929 226.615 197.589 230.604 196.205 233.083 195.205 235.751 194.587 238.607 194.756 240.279 195.423 241.613 196.588 242.609Z" fill="#7445A0" fill-rule="evenodd" transform="matrix(1.00198 0 0 1 389.34 109.992)"/><path d="M188.585 261.618C190.527 263.129 191.027 265.13 190.085 267.62 189.074 268.458 187.906 268.791 186.584 268.621 186.269 265.909 186.936 263.574 188.585 261.618Z" fill="#0F0C12" fill-rule="evenodd" transform="matrix(1.00198 0 0 1 389.34 109.992)"/><path d="M177.58 245.61C181.477 245.968 182.477 247.968 180.581 251.613 179.345 252.359 178.01 252.693 176.579 252.614 176.527 250.209 176.861 247.875 177.58 245.61Z" fill="#19131E" fill-rule="evenodd" transform="matrix(1.00198 0 0 1 389.34 109.992)"/><path d="M189.585 242.609C191.808 242.668 192.809 243.835 192.587 246.111 192.663 248.868 191.329 250.035 188.585 249.612 188.383 247.161 188.716 244.827 189.585 242.609Z" fill="#0E0C10" fill-rule="evenodd" transform="matrix(1.00198 0 0 1 389.34 109.992)"/><path d="M188.585 224.601C189.918 224.601 191.253 224.601 192.587 224.601 192.769 226.693 192.434 228.694 191.586 230.604 190.761 231.49 189.76 231.823 188.585 231.604 188.585 229.27 188.585 226.935 188.585 224.601Z" fill="#120E14" fill-rule="evenodd" transform="matrix(1.00198 0 0 1 389.34 109.992)"/><path d="M244.61 227.602C244.27 225.422 243.269 223.589 241.609 222.1 241.837 221.701 242.171 221.535 242.609 221.6 244.335 221.256 244.835 220.256 244.11 218.598 242.776 217.265 241.442 215.93 240.108 214.596 239.618 215.89 239.451 217.225 239.608 218.598 238.94 218.265 238.274 217.931 237.607 217.598 236.934 214.755 235.6 212.253 233.605 210.094 239.545 211.308 245.047 213.809 250.112 217.598 254.136 224.311 257.472 230.981 260.117 237.607 262.383 239.83 264.551 242.164 266.62 244.61 266.287 244.943 265.953 245.277 265.619 245.61 261.835 244.552 258.499 242.718 255.615 240.108 252.081 235.746 248.413 231.577 244.61 227.602Z" fill="#19ABDF" fill-rule="evenodd" transform="matrix(1.00198 0 0 1 389.34 109.992)"/><path d="M252.614 233.605C253.5 232.328 254.5 232.328 255.615 233.605 256.739 235.02 257.74 236.52 258.616 238.107 255.969 237.647 253.968 236.146 252.614 233.605Z" fill="#11252E" fill-rule="evenodd" transform="matrix(1.00198 0 0 1 389.34 109.992)"/><path d="M237.607 217.598C238.274 217.931 238.94 218.265 239.608 218.598 240.941 219.266 241.942 220.266 242.609 221.6 242.171 221.535 241.837 221.701 241.609 222.1 243.269 223.589 244.27 225.422 244.61 227.602 241.504 224.826 239.169 221.492 237.607 217.598Z" fill="#42697D" fill-rule="evenodd" transform="matrix(1.00198 0 0 1 389.34 109.992)"/><path d="M246.611 217.598C249.579 218.835 250.58 220.836 249.612 223.6 247.558 222.161 246.558 220.16 246.611 217.598Z" fill="#0C1012" fill-rule="evenodd" transform="matrix(1.00198 0 0 1 389.34 109.992)"/><path d="M242.609 221.6C241.942 220.266 240.941 219.266 239.608 218.598 239.451 217.225 239.618 215.89 240.108 214.596 241.442 215.93 242.776 217.265 244.11 218.598 244.835 220.256 244.335 221.256 242.609 221.6Z" fill="#0F161A" fill-rule="evenodd" transform="matrix(1.00198 0 0 1 389.34 109.992)"/><path d="M141.564 236.606C145.091 228.044 149.759 220.208 155.57 213.096 166.637 212.884 177.308 214.718 187.584 218.598 182.148 228.545 176.478 238.383 170.577 248.112 168.243 248.779 165.908 248.779 163.574 248.112 155.338 246.039 147 244.371 138.562 243.109 138.229 242.776 137.895 242.442 137.562 242.109 138.55 239.941 139.884 238.107 141.564 236.606Z" fill="#EEEEEE" fill-rule="evenodd" transform="matrix(1.00198 0 0 1 389.34 109.992)"/><path d="M168.576 238.607C172.351 238.591 173.352 240.258 171.577 243.609 169.589 245.611 167.255 246.446 164.574 246.111 163.52 244.722 163.353 243.221 164.074 241.609 165.726 240.709 167.227 239.709 168.576 238.607Z" fill="#1A1A1A" fill-rule="evenodd" transform="matrix(1.00198 0 0 1 389.34 109.992)"/><path d="M141.564 236.606C143.561 234.773 145.895 234.272 148.567 235.106 149.988 240.112 147.988 242.113 142.564 241.108 141.684 239.752 141.35 238.251 141.564 236.606Z" fill="#141414" fill-rule="evenodd" transform="matrix(1.00198 0 0 1 389.34 109.992)"/><path d="M172.578 227.602C174.245 227.602 175.912 227.602 177.58 227.602 178.597 231.893 176.93 234.227 172.578 234.605 170.811 234.671 169.81 233.837 169.576 232.104 170.392 230.461 171.392 228.96 172.578 227.602Z" fill="#131313" fill-rule="evenodd" transform="matrix(1.00198 0 0 1 389.34 109.992)"/><path d="M149.567 224.601C151.267 224.441 152.935 224.607 154.569 225.101 156.239 228.801 155.073 231.302 151.068 232.605 146.946 230.699 146.446 228.031 149.567 224.601Z" fill="#171717" fill-rule="evenodd" transform="matrix(1.00198 0 0 1 389.34 109.992)"/><path d="M178.58 217.598C182.153 217.506 183.32 219.173 182.082 222.6 180.292 224.33 178.124 224.997 175.579 224.601 174.988 221.425 175.988 219.089 178.58 217.598Z" fill="#111314" fill-rule="evenodd" transform="matrix(1.00198 0 0 1 389.34 109.992)"/><path d="M155.57 214.596C157.571 214.596 159.572 214.596 161.573 214.596 161.576 219.914 158.907 221.915 153.569 220.599 153.322 218.24 153.988 216.239 155.57 214.596Z" fill="#171717" fill-rule="evenodd" transform="matrix(1.00198 0 0 1 389.34 109.992)"/><path d="M237.607 217.598C239.169 221.492 241.504 224.826 244.61 227.602 246.85 231.057 249.351 234.391 252.113 237.607 255.989 242.826 255.156 247.161 249.612 250.613 244.725 255.202 239.723 259.538 234.605 263.618 231.441 265.931 228.106 268.098 224.601 270.121 222.571 270.803 220.57 271.136 218.598 271.122 211.363 261.459 204.026 251.954 196.588 242.609 196.425 240.251 196.591 237.917 197.089 235.606 205.616 227.265 214.787 219.762 224.601 213.096 226.752 211.505 229.086 210.838 231.604 211.095 233.103 213.76 235.104 215.927 237.607 217.598Z" fill="#F4F4F4" fill-rule="evenodd" transform="matrix(1.00198 0 0 1 389.34 109.992)"/><path d="M220.599 254.614C227.091 254.27 229.092 257.106 226.602 263.118 220.247 265.518 217.746 263.35 219.098 256.615 219.816 256.071 220.316 255.404 220.599 254.614Z" fill="#121212" fill-rule="evenodd" transform="matrix(1.00198 0 0 1 389.34 109.992)"/><path d="M238.607 238.607C246.597 238.105 248.598 241.273 244.61 248.112 238.105 248.074 236.104 244.907 238.607 238.607Z" fill="#151718" fill-rule="evenodd" transform="matrix(1.00198 0 0 1 389.34 109.992)"/><path d="M223.6 237.607C229.445 238.566 230.779 241.401 227.602 246.111 222.241 247.254 220.073 245.086 221.099 239.608 222.095 239.041 222.928 238.374 223.6 237.607Z" fill="#131313" fill-rule="evenodd" transform="matrix(1.00198 0 0 1 389.34 109.992)"/><path d="M205.592 236.606C211.64 236.135 213.641 238.636 211.595 244.11 204.842 245.579 202.841 243.078 205.592 236.606Z" fill="#0D0D0D" fill-rule="evenodd" transform="matrix(1.00198 0 0 1 389.34 109.992)"/><path d="M224.601 219.599C231.355 219.479 233.356 222.314 230.604 228.103 224.614 228.266 222.613 225.431 224.601 219.599Z" fill="#161616" fill-rule="evenodd" transform="matrix(1.00198 0 0 1 389.34 109.992)"/><path d="M237.607 267.62C241.107 267.379 241.441 268.213 238.607 270.121 240.868 270.165 242.869 269.332 244.61 267.62 245.293 267.983 245.961 268.317 246.611 268.621 244.159 271.399 241.157 273.4 237.607 274.623 235.827 272.779 233.493 272.112 230.604 272.623 232.724 270.722 235.059 269.055 237.607 267.62Z" fill="#291B35" fill-rule="evenodd" transform="matrix(1.00198 0 0 1 389.34 109.992)"/><path d="M173.578 267.62C175.862 267.728 177.863 268.562 179.581 270.121 181.248 273.456 180.248 274.79 176.579 274.123 174.159 272.614 173.159 270.447 173.578 267.62Z" fill="#142C37" fill-rule="evenodd" transform="matrix(1.00198 0 0 1 389.34 109.992)"/><path d="M230.604 272.623C233.493 272.112 235.827 272.779 237.607 274.623 233.993 275.635 230.325 275.802 226.602 275.124 225.39 274.23 225.39 273.397 226.602 272.623 227.967 273.93 229.301 273.93 230.604 272.623Z" fill="#693F91" fill-rule="evenodd" transform="matrix(1.00198 0 0 1 389.34 109.992)"/><path d="M183.583 273.623C184.517 274.691 184.851 276.025 184.583 277.625 182.667 277.909 181 277.576 179.581 276.624 180.914 276.624 182.249 276.624 183.583 276.624 183.583 275.624 183.583 274.623 183.583 273.623Z" fill="#125C77" fill-rule="evenodd" transform="matrix(1.00198 0 0 1 389.34 109.992)"/></g></svg>